<mxfile host="app.diagrams.net" agent="Mozilla/5.0 (Windows NT 10.0; Win64; x64) AppleWebKit/537.36 (KHTML, like Gecko) Chrome/131.0.0.0 Safari/537.36" version="24.8.6">
  <diagram name="Sprint 1" id="8wOhjMl5IWU0V27mDBEJ">
    <mxGraphModel grid="1" page="1" gridSize="20" guides="1" tooltips="1" connect="1" arrows="1" fold="1" pageScale="1" pageWidth="1920" pageHeight="1200" math="0" shadow="0">
      <root>
        <mxCell id="0" />
        <mxCell id="1" parent="0" />
        <mxCell id="gRMEq2RXlu26QjJvowbd-26" value="MichaÅ‚" style="rounded=0;whiteSpace=wrap;html=1;movable=1;resizable=1;rotatable=1;deletable=1;editable=1;locked=0;connectable=1;strokeWidth=4;perimeterSpacing=0;verticalAlign=top;fontSize=32;fontStyle=1;opacity=25;fillColor=#3B9DFF;gradientColor=none;fillStyle=auto;fontFamily=Tahoma;horizontal=1;spacing=15;" vertex="1" parent="1">
          <mxGeometry x="1610" y="10" width="300" height="1180" as="geometry" />
        </mxCell>
        <mxCell id="gRMEq2RXlu26QjJvowbd-25" value="Staszek" style="rounded=0;whiteSpace=wrap;html=1;movable=1;resizable=1;rotatable=1;deletable=1;editable=1;locked=0;connectable=1;strokeWidth=4;perimeterSpacing=0;verticalAlign=top;fontSize=32;fontStyle=1;opacity=25;fillColor=#3B9DFF;gradientColor=none;fillStyle=auto;fontFamily=Tahoma;horizontal=1;spacing=15;" vertex="1" parent="1">
          <mxGeometry x="1290" y="10" width="300" height="1180" as="geometry" />
        </mxCell>
        <mxCell id="gRMEq2RXlu26QjJvowbd-23" value="Jan" style="rounded=0;whiteSpace=wrap;html=1;movable=1;resizable=1;rotatable=1;deletable=1;editable=1;locked=0;connectable=1;strokeWidth=4;perimeterSpacing=0;verticalAlign=top;fontSize=32;fontStyle=1;opacity=25;fillColor=#3B9DFF;gradientColor=none;fillStyle=auto;fontFamily=Tahoma;horizontal=1;spacing=15;" vertex="1" parent="1">
          <mxGeometry x="970" y="10" width="300" height="1180" as="geometry" />
        </mxCell>
        <mxCell id="gRMEq2RXlu26QjJvowbd-1" value="DO ZROBIENIA" style="rounded=0;whiteSpace=wrap;html=1;movable=1;resizable=1;rotatable=1;deletable=1;editable=1;locked=0;connectable=1;strokeWidth=4;perimeterSpacing=0;verticalAlign=top;fontSize=32;fontStyle=1;opacity=25;fillColor=#FF7936;gradientColor=none;fillStyle=auto;glass=0;shadow=0;fontFamily=Tahoma;horizontal=1;spacing=15;" vertex="1" parent="1">
          <mxGeometry x="10" y="10" width="300" height="1180" as="geometry" />
        </mxCell>
        <mxCell id="gRMEq2RXlu26QjJvowbd-20" value="Mateusz" style="rounded=0;whiteSpace=wrap;html=1;movable=1;resizable=1;rotatable=1;deletable=1;editable=1;locked=0;connectable=1;strokeWidth=4;perimeterSpacing=0;verticalAlign=top;fontSize=32;fontStyle=1;opacity=25;fillColor=#3B9DFF;gradientColor=none;fillStyle=auto;fontFamily=Tahoma;horizontal=1;spacing=15;" vertex="1" parent="1">
          <mxGeometry x="330" y="10" width="300" height="1180" as="geometry" />
        </mxCell>
        <mxCell id="gRMEq2RXlu26QjJvowbd-22" value="Kuba" style="rounded=0;whiteSpace=wrap;html=1;movable=1;resizable=1;rotatable=1;deletable=1;editable=1;locked=0;connectable=1;strokeWidth=4;perimeterSpacing=0;verticalAlign=top;fontSize=32;fontStyle=1;opacity=25;fillColor=#3B9DFF;gradientColor=none;fillStyle=auto;fontFamily=Tahoma;horizontal=1;spacing=15;" vertex="1" parent="1">
          <mxGeometry x="650" y="10" width="300" height="1180" as="geometry" />
        </mxCell>
        <mxCell id="gRMEq2RXlu26QjJvowbd-62" value="PZ-ID" style="shape=table;startSize=60;container=1;collapsible=0;childLayout=tableLayout;fontFamily=Comic Sans MS;fontSize=24;spacing=15;fontStyle=1;fillColor=#FEF0BE;strokeColor=none;swimlaneLine=0;top=1;perimeterSpacing=0;rounded=0;shadow=1;overflow=hidden;gradientColor=none;swimlaneHead=1;swimlaneBody=1;connectable=0;allowArrows=0;editable=1;movable=1;resizable=0;rotatable=0;deletable=1;locked=0;pointerEvents=1;expand=0;" vertex="1" parent="1">
          <mxGeometry x="40" y="1000" width="240" height="160" as="geometry" />
        </mxCell>
        <mxCell id="gRMEq2RXlu26QjJvowbd-63" value="" style="shape=tableRow;horizontal=0;startSize=0;swimlaneHead=0;swimlaneBody=0;strokeColor=inherit;top=0;left=0;bottom=0;right=0;collapsible=0;dropTarget=0;fillColor=none;points=[[0,0.5],[1,0.5]];portConstraint=eastwest;shadow=1;rotatable=0;cloneable=0;deletable=0;resizable=0;movable=0;allowArrows=0;" vertex="1" parent="gRMEq2RXlu26QjJvowbd-62">
          <mxGeometry y="60" width="240" height="100" as="geometry" />
        </mxCell>
        <mxCell id="gRMEq2RXlu26QjJvowbd-64" value="Nazwa zadania" style="shape=partialRectangle;html=1;whiteSpace=wrap;connectable=0;strokeColor=default;overflow=hidden;fillColor=#FEF0BE;top=0;left=0;bottom=0;right=0;pointerEvents=1;fontFamily=Comic Sans MS;fontSize=22;shadow=1;rotatable=0;deletable=0;cloneable=0;resizable=0;allowArrows=0;" vertex="1" parent="gRMEq2RXlu26QjJvowbd-63">
          <mxGeometry width="240" height="100" as="geometry">
            <mxRectangle width="240" height="100" as="alternateBounds" />
          </mxGeometry>
        </mxCell>
      </root>
    </mxGraphModel>
  </diagram>
</mxfile>
